<svg width="15" height="15" viewBox="0 0 15 15" fill="none" xmlns="http://www.w3.org/2000/svg">
<path d="M14.7188 0.203125C14.7377 0.207677 14.7547 0.217626 14.7686 0.231445C14.7824 0.245263 14.7923 0.262248 14.7969 0.28125C14.7991 0.290773 14.8002 0.300868 14.7998 0.310547L14.7949 0.339844L9.99805 14.7275C9.99127 14.7478 9.97799 14.7654 9.96094 14.7783C9.94375 14.7912 9.92283 14.799 9.90137 14.7998C9.87996 14.8006 9.85892 14.7947 9.84082 14.7832C9.83174 14.7774 9.82328 14.7708 9.81641 14.7627L9.7998 14.7354L7.53906 9.46094L11.2344 4.28906L11.2354 4.28809C11.478 3.94396 11.0561 3.52191 10.7119 3.76465L10.7109 3.76562L5.53809 7.46094L0.264648 5.2002C0.24489 5.19176 0.228265 5.17735 0.216797 5.15918C0.205339 5.14101 0.19931 5.12009 0.200195 5.09863C0.201082 5.07716 0.208753 5.05623 0.22168 5.03906C0.22815 5.03054 0.235532 5.02275 0.244141 5.0166L0.272461 5.00293L14.6592 0.205078C14.6778 0.198861 14.6995 0.198593 14.7188 0.203125Z" stroke="black" stroke-width="0.4"/>
</svg>
